<mxfile host="app.diagrams.net" modified="2024-02-13T05:45:47.105Z" agent="Mozilla/5.0 (Windows NT 10.0; Win64; x64) AppleWebKit/537.36 (KHTML, like Gecko) Chrome/121.0.0.0 Safari/537.36" version="23.1.3" etag="DT7vh94arbB5JT2gLXhv" type="github">
  <diagram name="Page-1" id="3uFus1h24wyrWvweA4qY">
    <mxGraphModel>
      <root>
        <mxCell id="0" />
        <mxCell id="1" parent="0" />
      </root>
    </mxGraphModel>
  </diagram>
</mxfile>
